HIERARCHY
ROOT joint_Root
{
	OFFSET 0.0 0.0 0.0
	CHANNELS 6 Xposition Yposition Zposition Zrotation Xrotation Yrotation 
	JOINT Hips
	{
		OFFSET 4.5925 91.4895 -427.239
		CHANNELS 6 Xposition Yposition Zposition Zrotation Xrotation Yrotation 
		JOINT Spine
		{
			OFFSET 15.7357 0.0 0.0
			CHANNELS 6 Xposition Yposition Zposition Zrotation Xrotation Yrotation 
			JOINT Chest
			{
				OFFSET 8.98455 -0.406207 0.0
				CHANNELS 6 Xposition Yposition Zposition Zrotation Xrotation Yrotation 
				JOINT Neck
				{
					OFFSET 16.3773 0.0 0.0
					CHANNELS 6 Xposition Yposition Zposition Zrotation Xrotation Yrotation 
					JOINT Head
					{
						OFFSET 6.45672 0.0 0.0
						CHANNELS 6 Xposition Yposition Zposition Zrotation Xrotation Yrotation 
						End Site
						{
							OFFSET 0.0 0.0 0.0
						}
					}
				}
				JOINT Shoulder_L
				{
					OFFSET 12.9942 -0.242716 4.98039
					CHANNELS 6 Xposition Yposition Zposition Zrotation Xrotation Yrotation 
					JOINT UpperArm_L
					{
						OFFSET 5.34809 0.0 0.0
						CHANNELS 6 Xposition Yposition Zposition Zrotation Xrotation Yrotation 
						JOINT LowerArm_L
						{
							OFFSET 24.3286 1.87007e-05 0.0
							CHANNELS 6 Xposition Yposition Zposition Zrotation Xrotation Yrotation 
							JOINT Hand_L
							{
								OFFSET 22.2916 0.0 0.0
								CHANNELS 6 Xposition Yposition Zposition Zrotation Xrotation Yrotation 
								End Site
								{
									OFFSET 0.0 0.0 0.0
								}
							}
						}
					}
				}
				JOINT Shoulder_R
				{
					OFFSET 12.9945 -0.242716 -4.98039
					CHANNELS 6 Xposition Yposition Zposition Zrotation Xrotation Yrotation 
					JOINT UpperArm_R
					{
						OFFSET -5.34813 0.0 0.0
						CHANNELS 6 Xposition Yposition Zposition Zrotation Xrotation Yrotation 
						JOINT LowerArm_R
						{
							OFFSET -24.3289 0.000322201 0.0
							CHANNELS 6 Xposition Yposition Zposition Zrotation Xrotation Yrotation 
							JOINT Hand_R
							{
								OFFSET -22.2915 -0.000108084 0.0
								CHANNELS 6 Xposition Yposition Zposition Zrotation Xrotation Yrotation 
								End Site
								{
									OFFSET 0.0 0.0 0.0
								}
							}
						}
					}
				}
			}
		}
		JOINT UpperLeg_L
		{
			OFFSET -2.19248 -6.46944 0.0
			CHANNELS 6 Xposition Yposition Zposition Zrotation Xrotation Yrotation 
			JOINT LowerLeg_L
			{
				OFFSET 39.0811 0.0 -1.23785e-05
				CHANNELS 6 Xposition Yposition Zposition Zrotation Xrotation Yrotation 
				JOINT Foot_L
				{
					OFFSET 40.9854 0.0 -1.26872e-05
					CHANNELS 6 Xposition Yposition Zposition Zrotation Xrotation Yrotation 
					JOINT Toes_L
					{
						OFFSET 11.7543 0.0 0.0
						CHANNELS 6 Xposition Yposition Zposition Zrotation Xrotation Yrotation 
						End Site
						{
							OFFSET 0.0 0.0 0.0
						}
					}
				}
			}
		}
		JOINT UpperLeg_R
		{
			OFFSET -2.19251 6.46944 0.0
			CHANNELS 6 Xposition Yposition Zposition Zrotation Xrotation Yrotation 
			JOINT LowerLeg_R
			{
				OFFSET -39.0811 -0.00228153 -0.0401928
				CHANNELS 6 Xposition Yposition Zposition Zrotation Xrotation Yrotation 
				JOINT Foot_R
				{
					OFFSET -40.9854 0.0 0.0
					CHANNELS 6 Xposition Yposition Zposition Zrotation Xrotation Yrotation 
					JOINT Toes_R
					{
						OFFSET -11.7543 0.0 0.0
						CHANNELS 6 Xposition Yposition Zposition Zrotation Xrotation Yrotation 
						End Site
						{
							OFFSET 0.0 0.0 0.0
						}
					}
				}
			}
		}
	}
}
MOTION
Frames:	4
Frame Time:	0.0333333
0.000000 0.000000 0.000000 0.000000 0.000000 -0.000000 -1.262290 85.016000 2.144090 87.477500 -5.951740 12.254400 15.735700 0.000005 -0.000001 78.641500 81.469900 -76.138800 8.984550 -0.406207 -0.000000 9.048900 -3.314240 5.264590 16.377300 -0.000001 -0.000001 -0.121565 1.812160 2.205010 6.456720 -0.000001 -0.000000 -2.190490 8.359710 -3.612080 12.994200 -0.242716 4.980390 -91.090200 3.519900 -72.778800 5.348090 -0.000007 -0.000001 -63.999400 33.282000 -8.499020 24.328600 0.000019 0.000005 11.113900 15.811900 -35.789500 22.291600 -0.000001 0.000005 14.234200 5.270480 0.885163 12.994500 -0.242716 -4.980390 86.471800 12.334700 -73.900700 -5.348130 -0.000001 -0.000004 -60.210400 0.354189 -1.838820 -24.328900 0.000322 -0.000009 -1.940140 -9.611210 -11.455600 -22.291500 -0.000108 -0.000004 13.645700 5.099860 5.122530 -2.192480 -6.469440 -0.000000 -171.577000 -10.383700 -6.345640 39.081100 -0.000007 -0.000012 -0.531699 0.397912 53.190800 40.985400 -0.000006 -0.000013 -1.322080 1.944870 -83.912900 11.754300 -0.000000 0.000003 -0.000354 -0.002984 -16.688100 -2.192510 6.469440 -0.000001 177.623000 12.836300 172.864000 -39.081100 -0.002282 -0.040193 0.059137 -0.042428 52.801800 -40.985400 0.000008 0.000006 6.743140 5.634550 -82.872500 -11.754300 -0.000006 -0.000006 -0.023031 -0.044852 -17.356000
0.000000 0.000000 0.000000 0.000000 0.000000 -0.000000 -1.879480 86.490900 2.673650 87.484300 -3.805070 10.827500 15.735700 0.000005 -0.000001 78.009600 83.072400 -76.653400 8.984550 -0.406207 -0.000000 5.828490 -2.894010 2.856980 16.377300 -0.000001 -0.000001 1.097890 1.572120 1.597270 6.456720 -0.000001 -0.000000 -1.017640 6.869980 -2.801880 12.994200 -0.242716 4.980390 -91.124700 3.402610 -71.696200 5.348090 -0.000007 -0.000001 -64.761300 30.546000 -7.338900 24.328600 0.000019 0.000005 10.180500 14.959000 -34.825600 22.291600 -0.000001 0.000005 14.326300 5.246770 1.517840 12.994500 -0.242716 -4.980390 86.738900 11.082300 -73.488700 -5.348130 -0.000001 -0.000004 -59.537000 -5.288930 -3.266560 -24.328900 0.000322 -0.000009 -0.935202 -8.074470 -6.622250 -22.291500 -0.000108 -0.000004 10.759300 5.085280 5.447900 -2.192480 -6.469440 -0.000000 -171.837000 -8.573490 -5.407120 39.081100 -0.000007 -0.000012 -0.473215 0.424123 48.132600 40.985400 -0.000006 -0.000013 -1.713010 2.286650 -81.448800 11.754300 -0.000000 0.000003 -0.000323 -0.002768 -16.680400 -2.192510 6.469440 -0.000001 178.244000 13.904100 174.402000 -39.081100 -0.002282 -0.040193 0.056614 -0.048413 47.782400 -40.985400 0.000008 0.000006 6.484790 4.719440 -80.524600 -11.754300 -0.000006 -0.000006 -0.209450 -0.267986 -17.533600
0.000000 0.000000 0.000000 0.000000 0.000000 -0.000000 -2.248710 88.199300 3.036540 88.009800 -1.768660 8.688450 15.735700 0.000005 -0.000001 74.767900 84.875700 -74.886500 8.984550 -0.406207 -0.000000 2.122010 -2.684900 -0.187327 16.377300 -0.000001 -0.000001 2.658180 1.036080 1.181880 6.456720 -0.000001 -0.000000 0.081329 5.247610 -1.707370 12.994200 -0.242716 4.980390 -91.030100 2.902830 -70.451900 5.348090 -0.000007 -0.000001 -65.770300 27.624400 -5.281020 24.328600 0.000019 0.000005 8.977330 13.533600 -34.022200 22.291600 -0.000001 0.000005 14.023600 5.258490 1.206990 12.994500 -0.242716 -4.980390 87.197800 9.084480 -72.775800 -5.348130 -0.000001 -0.000004 -56.530900 -11.347300 -8.369850 -24.328900 0.000322 -0.000009 -1.126820 -10.262500 -6.294120 -22.291500 -0.000108 -0.000004 9.012720 5.072490 5.737500 -2.192480 -6.469440 -0.000000 -172.690000 -7.514930 -4.531670 39.081100 -0.000007 -0.000012 -0.366177 0.413622 41.519100 40.985400 -0.000006 -0.000013 -1.820710 2.896220 -78.063500 11.754300 -0.000000 0.000003 -0.000225 -0.002047 -16.654500 -2.192510 6.469440 -0.000001 178.331000 15.137400 175.545000 -39.081100 -0.002282 -0.040193 0.047404 -0.049646 41.633200 -40.985400 0.000008 0.000006 6.130240 4.403860 -77.383300 -11.754300 -0.000006 -0.000006 -0.320135 -0.401759 -17.803100
0.000000 0.000000 0.000000 0.000000 0.000000 -0.000000 -2.367150 89.528100 3.210330 88.304100 -0.120650 6.810870 15.735700 0.000005 -0.000001 69.300400 86.242800 -70.673700 8.984550 -0.406207 -0.000000 -0.765626 -2.553340 -2.762620 16.377300 -0.000001 -0.000001 3.820590 0.590930 0.653096 6.456720 -0.000001 -0.000000 0.851444 3.801480 -0.865118 12.994200 -0.242716 4.980390 -90.995200 2.623620 -69.219400 5.348090 -0.000007 -0.000001 -65.868300 25.135900 -3.794270 24.328600 0.000019 0.000005 7.898570 12.181900 -33.323300 22.291600 -0.000001 0.000005 12.588600 5.270250 0.890333 12.994500 -0.242716 -4.980390 87.814400 7.132040 -72.913400 -5.348130 -0.000001 -0.000004 -50.908400 -17.952400 -17.415700 -24.328900 0.000322 -0.000009 -1.925210 -14.256300 -7.767430 -22.291500 -0.000108 -0.000004 9.009800 5.124160 4.554560 -2.192480 -6.469440 -0.000000 -173.051000 -7.820670 -3.792120 39.081100 -0.000007 -0.000012 -0.277551 0.385442 35.757600 40.985400 -0.000006 -0.000013 -1.515210 4.374310 -75.004500 11.754300 -0.000000 0.000003 -0.000165 -0.001574 -16.637200 -2.192510 6.469440 -0.000001 178.231000 17.257100 176.571000 -39.081100 -0.002282 -0.040193 0.040233 -0.050539 36.167800 -40.985400 0.000008 0.000006 6.286200 5.200920 -74.662400 -11.754300 -0.000006 -0.000006 -0.190910 -0.255013 -18.152600
